<svg xmlns="http://www.w3.org/2000/svg" xmlns:xlink="http://www.w3.org/1999/xlink" contentStyleType="text/css" height="345px" preserveAspectRatio="none" style="width:1485px;height:345px;background:#FFFFFF;" version="1.1" viewBox="0 0 1485 345" width="1485px" zoomAndPan="magnify"><defs/><g><text fill="#000000" font-family="sans-serif" font-size="14" font-weight="bold" lengthAdjust="spacing" textLength="460.1543" x="505.9084" y="22.9951">&#1057;&#1074;&#1103;&#1079;&#1100; &#1087;&#1086;&#1083;&#1100;&#1079;&#1086;&#1074;&#1072;&#1090;&#1077;&#1083;&#1077;&#1081;, &#1075;&#1080;&#1083;&#1100;&#1076;&#1080;&#1081;, &#1095;&#1072;&#1090;&#1086;&#1074; &#1080; &#1075;&#1086;&#1083;&#1086;&#1089;&#1086;&#1074;&#1099;&#1093; &#1095;&#1072;&#1090;&#1086;&#1074;</text><!--cluster ServerA--><g id="cluster_ServerA"><rect fill="none" height="148.72" rx="2.5" ry="2.5" style="stroke:#181818;stroke-width:1.0;" width="678" x="24.1745" y="44.2969"/><text fill="#000000" font-family="sans-serif" font-size="14" font-weight="bold" lengthAdjust="spacing" textLength="286.9385" x="219.7052" y="59.292">&#1043;&#1080;&#1083;&#1076;&#1100;&#1103; &#1086;&#1073;&#1097;&#1072;&#1102;&#1097;&#1080;&#1093;&#1089;&#1103; &#1089; &#1090;&#1072;&#1088;&#1072;&#1082;&#1072;&#1085;&#1072;&#1084;&#1080;</text></g><!--cluster ServerB--><g id="cluster_ServerB"><rect fill="none" height="148.72" rx="2.5" ry="2.5" style="stroke:#181818;stroke-width:1.0;" width="624" x="837.1745" y="44.2969"/><text fill="#000000" font-family="sans-serif" font-size="14" font-weight="bold" lengthAdjust="spacing" textLength="253.5928" x="1022.3781" y="59.292">&#1043;&#1080;&#1083;&#1076;&#1100;&#1103; &#1088;&#1077;&#1084;&#1086;&#1085;&#1090;&#1085;&#1080;&#1082;&#1086;&#1074; &#1076;&#1078;&#1077;&#1090;&#1089;&#1086;&#1085;&#1072;</text></g><!--entity ChatA1--><g id="elem_ChatA1"><rect fill="#F1F1F1" height="36.2969" rx="2.5" ry="2.5" style="stroke:#181818;stroke-width:0.5;" width="71.4199" x="606.6745" y="133.0169"/><text fill="#000000" font-family="sans-serif" font-size="14" lengthAdjust="spacing" textLength="51.4199" x="616.6745" y="156.012">&#1063;&#1072;&#1090; #1</text></g><!--entity VoiceChatA1--><g id="elem_VoiceChatA1"><rect fill="#F1F1F1" height="36.2969" rx="2.5" ry="2.5" style="stroke:#181818;stroke-width:0.5;" width="151.3389" x="48.6745" y="133.0169"/><text fill="#000000" font-family="sans-serif" font-size="14" lengthAdjust="spacing" textLength="131.3389" x="58.6745" y="156.012">&#1043;&#1086;&#1083;&#1086;&#1089;&#1086;&#1074;&#1086;&#1081; &#1095;&#1072;&#1090; #1</text></g><!--entity VoiceChatA2--><g id="elem_VoiceChatA2"><rect fill="#F1F1F1" height="36.2969" rx="2.5" ry="2.5" style="stroke:#181818;stroke-width:0.5;" width="151.3389" x="234.6745" y="133.0169"/><text fill="#000000" font-family="sans-serif" font-size="14" lengthAdjust="spacing" textLength="131.3389" x="244.6745" y="156.012">&#1043;&#1086;&#1083;&#1086;&#1089;&#1086;&#1074;&#1086;&#1081; &#1095;&#1072;&#1090; #2</text></g><!--entity VoiceChatA3--><g id="elem_VoiceChatA3"><rect fill="#F1F1F1" height="36.2969" rx="2.5" ry="2.5" style="stroke:#181818;stroke-width:0.5;" width="151.3389" x="420.6745" y="133.0169"/><text fill="#000000" font-family="sans-serif" font-size="14" lengthAdjust="spacing" textLength="131.3389" x="430.6745" y="156.012">&#1043;&#1086;&#1083;&#1086;&#1089;&#1086;&#1074;&#1086;&#1081; &#1095;&#1072;&#1090; #3</text></g><!--entity ChatB1--><g id="elem_ChatB1"><rect fill="#F1F1F1" height="36.2969" rx="2.5" ry="2.5" style="stroke:#181818;stroke-width:0.5;" width="71.4199" x="1153.6745" y="133.0169"/><text fill="#000000" font-family="sans-serif" font-size="14" lengthAdjust="spacing" textLength="51.4199" x="1163.6745" y="156.012">&#1063;&#1072;&#1090; #1</text></g><!--entity ChatB2--><g id="elem_ChatB2"><rect fill="#F1F1F1" height="36.2969" rx="2.5" ry="2.5" style="stroke:#181818;stroke-width:0.5;" width="71.4199" x="1259.6745" y="133.0169"/><text fill="#000000" font-family="sans-serif" font-size="14" lengthAdjust="spacing" textLength="51.4199" x="1269.6745" y="156.012">&#1063;&#1072;&#1090; #2</text></g><!--entity ChatB3--><g id="elem_ChatB3"><rect fill="#F1F1F1" height="36.2969" rx="2.5" ry="2.5" style="stroke:#181818;stroke-width:0.5;" width="71.4199" x="1365.6745" y="133.0169"/><text fill="#000000" font-family="sans-serif" font-size="14" lengthAdjust="spacing" textLength="51.4199" x="1375.6745" y="156.012">&#1063;&#1072;&#1090; #3</text></g><!--entity ChatB4--><g id="elem_ChatB4"><rect fill="#F1F1F1" height="36.2969" rx="2.5" ry="2.5" style="stroke:#181818;stroke-width:0.5;" width="71.4199" x="861.6745" y="133.0169"/><text fill="#000000" font-family="sans-serif" font-size="14" lengthAdjust="spacing" textLength="51.4199" x="871.6745" y="156.012">&#1063;&#1072;&#1090; #4</text></g><!--entity VoiceChatB1--><g id="elem_VoiceChatB1"><rect fill="#F1F1F1" height="36.2969" rx="2.5" ry="2.5" style="stroke:#181818;stroke-width:0.5;" width="151.3389" x="967.6745" y="133.0169"/><text fill="#000000" font-family="sans-serif" font-size="14" lengthAdjust="spacing" textLength="131.3389" x="977.6745" y="156.012">&#1043;&#1086;&#1083;&#1086;&#1089;&#1086;&#1074;&#1086;&#1081; &#1095;&#1072;&#1090; #1</text></g><!--entity User1--><g id="elem_User1"><ellipse cx="772.0832" cy="272.5169" fill="#F1F1F1" rx="8" ry="8" style="stroke:#181818;stroke-width:0.5;"/><path d="M772.0832,280.5169 L772.0832,307.5169 M759.0832,288.5169 L785.0832,288.5169 M772.0832,307.5169 L759.0832,322.5169 M772.0832,307.5169 L785.0832,322.5169 " fill="none" style="stroke:#181818;stroke-width:0.5;"/><text fill="#000000" font-family="sans-serif" font-size="14" lengthAdjust="spacing" textLength="40.8174" x="751.6745" y="337.012">User1</text></g><!--entity User2--><g id="elem_User2"><ellipse cx="59.0832" cy="272.5169" fill="#F1F1F1" rx="8" ry="8" style="stroke:#181818;stroke-width:0.5;"/><path d="M59.0832,280.5169 L59.0832,307.5169 M46.0832,288.5169 L72.0832,288.5169 M59.0832,307.5169 L46.0832,322.5169 M59.0832,307.5169 L72.0832,322.5169 " fill="none" style="stroke:#181818;stroke-width:0.5;"/><text fill="#000000" font-family="sans-serif" font-size="14" lengthAdjust="spacing" textLength="40.8174" x="38.6745" y="337.012">User2</text></g><!--entity User3--><g id="elem_User3"><ellipse cx="1389.0832" cy="272.5169" fill="#F1F1F1" rx="8" ry="8" style="stroke:#181818;stroke-width:0.5;"/><path d="M1389.0832,280.5169 L1389.0832,307.5169 M1376.0832,288.5169 L1402.0832,288.5169 M1389.0832,307.5169 L1376.0832,322.5169 M1389.0832,307.5169 L1402.0832,322.5169 " fill="none" style="stroke:#181818;stroke-width:0.5;"/><text fill="#000000" font-family="sans-serif" font-size="14" lengthAdjust="spacing" textLength="40.8174" x="1368.6745" y="337.012">User3</text></g><!--link User1 to ServerA--><g id="link_User1_ServerA"><path d="M767.3045,263.7269 C763.4645,242.4219 756.762,214.6619 745.2295,187.7694 C739.4632,174.3231 732.4895,161.0938 724.0623,148.9966 C719.8487,142.948 715.2717,137.1824 710.3007,131.8143 C707.8151,129.1303 709.6471,130.6075 706.9607,128.1365 " fill="none" id="User1-to-ServerA" style="stroke:#181818;stroke-width:1.0;"/><polygon fill="#181818" points="702.5447,124.0746,706.4607,133.1114,706.2247,127.4595,711.8766,127.2235,702.5447,124.0746" style="stroke:#181818;stroke-width:1.0;"/></g><!--link User1 to ServerB--><g id="link_User1_ServerB"><path d="M782.1145,263.7869 C788.9345,239.6919 798.7345,207.6444 809.812,179.2981 C815.3507,165.125 821.2088,151.8772 827.1735,141.0114 C830.1559,135.5785 833.1649,130.7411 836.1739,126.6813 C836.3619,126.4276 836.55,126.1769 836.7381,125.9293 C836.8321,125.8055 833.2684,130.4386 833.3624,130.3164 " fill="none" id="User1-to-ServerB" style="stroke:#181818;stroke-width:1.0;"/><polygon fill="#181818" points="837.0201,125.5602,828.3628,130.256,833.9721,129.5237,834.7044,135.1329,837.0201,125.5602" style="stroke:#181818;stroke-width:1.0;"/></g><!--link User2 to ServerA--><g id="link_User2_ServerA"><path d="M38.5645,264.0769 C28.6695,243.5769 18.197,216.9044 14.6357,190.3106 C12.8551,177.0138 12.8023,163.7366 15.4134,151.2605 C16.7189,145.0224 18.6904,138.9846 21.4449,133.2448 C22.1336,131.8099 22.8711,130.3935 23.6595,128.9973 C23.758,128.8228 20.8633,133.8482 20.9634,133.6743 " fill="none" id="User2-to-ServerA" style="stroke:#181818;stroke-width:1.0;"/><polygon fill="#181818" points="23.9575,128.4747,16,134.278,21.4624,132.8077,22.9328,138.2701,23.9575,128.4747" style="stroke:#181818;stroke-width:1.0;"/></g><!--link User3 to ServerB--><g id="link_User3_ServerB"><path d="M1409.7645,278.3569 C1425.5295,259.6019 1446.552,231.3169 1458.5482,201.6956 C1464.5463,186.885 1468.2879,171.7403 1467.9874,157.2858 C1467.8372,150.0585 1466.6765,143.0038 1464.282,136.2496 C1463.6834,134.5611 1463.0077,132.8913 1462.2514,131.2424 C1462.0623,130.8301 1461.8682,130.4192 1461.669,130.0096 C1461.5694,129.8048 1464.1536,134.9659 1464.0515,134.7618 " fill="none" id="User3-to-ServerB" style="stroke:#181818;stroke-width:1.0;"/><polygon fill="#181818" points="1461.3664,129.3962,1461.8169,139.2347,1463.6039,133.8675,1468.9711,135.6546,1461.3664,129.3962" style="stroke:#181818;stroke-width:1.0;"/></g><!--link ServerA to ChatA1--><g id="link_ServerA_ChatA1"><path d="M381.2645,72.0269 C384.9245,72.3169 502.8845,82.0569 589.1745,117.0169 C599.3245,121.1269 604.6841,123.8665 613.5441,129.6265 " fill="none" id="ServerA-to-ChatA1" style="stroke:#181818;stroke-width:1.0;"/><polygon fill="#181818" points="618.5745,132.8969,613.2091,124.6378,614.3825,130.1716,608.8486,131.345,618.5745,132.8969" style="stroke:#181818;stroke-width:1.0;"/></g><!--link ServerA to VoiceChatA1--><g id="link_ServerA_VoiceChatA1"><path d="M381.1045,72.0369 C378.3045,72.7169 288.1545,94.7169 217.1745,117.0169 C201.8145,121.8469 190.8447,125.5581 175.9547,130.8781 " fill="none" id="ServerA-to-VoiceChatA1" style="stroke:#181818;stroke-width:1.0;"/><polygon fill="#181818" points="170.3045,132.8969,180.1256,133.6356,175.013,131.2146,177.4339,126.102,170.3045,132.8969" style="stroke:#181818;stroke-width:1.0;"/></g><!--link ServerA to VoiceChatA2--><g id="link_ServerA_VoiceChatA2"><path d="M381.1245,72.0769 C379.6345,73.7069 350.3229,105.8994 329.8829,128.3594 " fill="none" id="ServerA-to-VoiceChatA2" style="stroke:#181818;stroke-width:1.0;"/><polygon fill="#181818" points="325.8445,132.7969,334.8604,128.8329,329.2098,129.099,328.9437,123.4484,325.8445,132.7969" style="stroke:#181818;stroke-width:1.0;"/></g><!--link ServerA to VoiceChatA3--><g id="link_ServerA_VoiceChatA3"><path d="M381.2545,72.0769 C383.6745,73.7069 433.0191,107.1786 466.0991,129.6186 " fill="none" id="ServerA-to-VoiceChatA3" style="stroke:#181818;stroke-width:1.0;"/><polygon fill="#181818" points="471.0645,132.9869,465.8619,124.6242,466.9267,130.18,461.3709,131.2447,471.0645,132.9869" style="stroke:#181818;stroke-width:1.0;"/></g><!--link ServerB to ChatB1--><g id="link_ServerB_ChatB1"><path d="M1189.1745,72.0769 C1189.1745,73.7069 1189.1745,104.3369 1189.1745,126.7969 " fill="none" id="ServerB-to-ChatB1" style="stroke:#181818;stroke-width:1.0;"/><polygon fill="#181818" points="1189.1745,132.7969,1193.1745,123.7969,1189.1745,127.7969,1185.1745,123.7969,1189.1745,132.7969" style="stroke:#181818;stroke-width:1.0;"/></g><!--link ServerB to ChatB2--><g id="link_ServerB_ChatB2"><path d="M1189.2545,72.0769 C1191.4745,73.7069 1236.7016,106.9911 1267.2016,129.4311 " fill="none" id="ServerB-to-ChatB2" style="stroke:#181818;stroke-width:1.0;"/><polygon fill="#181818" points="1272.0345,132.9869,1267.1556,124.4314,1268.0071,130.0238,1262.4146,130.8752,1272.0345,132.9869" style="stroke:#181818;stroke-width:1.0;"/></g><!--link ServerB to ChatB3--><g id="link_ServerB_ChatB3"><path d="M1189.2445,72.0269 C1192.0345,72.4969 1282.0545,87.7769 1348.1745,117.0169 C1357.9845,121.3569 1363.087,124.0329 1371.847,129.6629 " fill="none" id="ServerB-to-ChatB3" style="stroke:#181818;stroke-width:1.0;"/><polygon fill="#181818" points="1376.8945,132.9069,1371.4859,124.676,1372.6883,130.2036,1367.1607,131.4059,1376.8945,132.9069" style="stroke:#181818;stroke-width:1.0;"/></g><!--link ServerB to ChatB4--><g id="link_ServerB_ChatB4"><path d="M1189.0745,72.0169 C1184.8645,72.2069 1049.3145,78.3969 950.1745,117.0169 C939.8745,121.0269 934.3852,123.8017 925.4752,129.6317 " fill="none" id="ServerB-to-ChatB4" style="stroke:#181818;stroke-width:1.0;"/><polygon fill="#181818" points="920.4545,132.9169,930.1757,131.3363,924.6384,130.1792,925.7954,124.642,920.4545,132.9169" style="stroke:#181818;stroke-width:1.0;"/></g><!--link ServerB to VoiceChatB1--><g id="link_ServerB_VoiceChatB1"><path d="M1189.0645,72.0769 C1186.0045,73.7069 1122.3465,107.7194 1080.3465,130.1594 " fill="none" id="ServerB-to-VoiceChatB1" style="stroke:#181818;stroke-width:1.0;"/><polygon fill="#181818" points="1075.0545,132.9869,1084.8775,132.2737,1079.4645,130.6307,1081.1075,125.2177,1075.0545,132.9869" style="stroke:#181818;stroke-width:1.0;"/></g><!--link ChatA1 to User1--><g id="link_ChatA1_User1"><path d="M634.4345,169.1169 C627.7145,186.7469 620.8345,214.3669 633.1745,234.0169 C659.3945,275.7569 713.8247,291.0147 745.6947,296.9147 " fill="none" id="ChatA1-to-User1" style="stroke:#181818;stroke-width:1.0;"/><polygon fill="#181818" points="751.5945,298.0069,743.473,292.4354,746.678,297.0967,742.0167,300.3017,751.5945,298.0069" style="stroke:#181818;stroke-width:1.0;"/><text fill="#000000" font-family="sans-serif" font-size="13" lengthAdjust="spacing" textLength="76.083" x="634.1745" y="230.0838">&#1089;&#1086;&#1086;&#1073;&#1097;&#1077;&#1085;&#1080;&#1103;</text></g><!--link ChatB1 to User3--><g id="link_ChatB1_User3"><path d="M1202.9745,169.0969 C1213.1045,181.0469 1227.5945,196.9669 1242.1745,209.0169 C1283.7245,243.3369 1333.7386,271.8267 1363.2586,287.5467 " fill="none" id="ChatB1-to-User3" style="stroke:#181818;stroke-width:1.0;"/><polygon fill="#181818" points="1368.5545,290.3669,1362.4907,282.606,1364.1412,288.0167,1358.7305,289.6672,1368.5545,290.3669" style="stroke:#181818;stroke-width:1.0;"/><text fill="#000000" font-family="sans-serif" font-size="13" lengthAdjust="spacing" textLength="76.083" x="1273.1745" y="230.0838">&#1089;&#1086;&#1086;&#1073;&#1097;&#1077;&#1085;&#1080;&#1103;</text></g><!--link VoiceChatA1 to User2--><g id="link_VoiceChatA1_User2"><path d="M116.7145,169.1069 C106.6845,192.1169 90.9534,228.1673 77.7234,258.4973 " fill="none" id="VoiceChatA1-to-User2" style="stroke:#181818;stroke-width:1.0;"/><polygon fill="#181818" points="75.3245,263.9969,82.5892,257.3468,77.3236,259.4139,75.2565,254.1483,75.3245,263.9969" style="stroke:#181818;stroke-width:1.0;"/><text fill="#000000" font-family="sans-serif" font-size="13" lengthAdjust="spacing" textLength="41.0503" x="96.1745" y="230.0838">&#1072;&#1091;&#1076;&#1080;&#1086;</text></g><!--link VoiceChatB1 to User1--><g id="link_VoiceChatB1_User1"><path d="M1016.2245,169.2569 C997.8145,180.8469 972.7745,196.2769 950.1745,209.0169 C894.1145,240.6269 831.5099,271.9517 798.0999,288.3617 " fill="none" id="VoiceChatB1-to-User1" style="stroke:#181818;stroke-width:1.0;"/><polygon fill="#181818" points="792.7145,291.0069,802.5561,290.6294,797.2023,288.8026,799.0292,283.4488,792.7145,291.0069" style="stroke:#181818;stroke-width:1.0;"/><text fill="#000000" font-family="sans-serif" font-size="13" lengthAdjust="spacing" textLength="41.0503" x="932.1745" y="230.0838">&#1072;&#1091;&#1076;&#1080;&#1086;</text></g><!--SRC=[dPJFJi904CRl-nGJlCgXkvmyc50VmUYz8OsI64bAuuMO28OO8v43J-39QyLM2aXzXPatShgbTA4b_ZbiT_ljRsPtlzdMR_jNBk0BJccCCne1Vc62InhXZFif1ZJ029VSveU0xnZhkP1xVgS7FSySO9pESYGcr4yLUgAX0GZXjFoE1sTTrxECiJJ6IWZFRVdEzGLlgOQJT34CQKHZu1HlzCZ9dlaPqv3wB58VE7b0TnZWWjkAsoV6DN2wSEfwDwxNX9u0C9E-fXk20qj39vUEtxHsY8bv2cxpzIdoeFDEk-N-CLBkHCfVHwgTI2Lkzxl4JaJiG88hzcN54ukiDY5-O4G3dPvDCWooVpR8jge9MH2ocb05eQg9Ha4q_bi6tXzRekyLrEl7UULBYfr1iWIfRIY_EQcuBhCfcUMlrkKUNUMvxKrksofBiYofijJOaampHBOvhMSU785sCVk4elHYq5Xaz8PIrPGmZhjX9RDSYdlz6qY4iVZMeWNo3G00]--></g></svg>