<svg xmlns="http://www.w3.org/2000/svg" xmlns:xlink="http://www.w3.org/1999/xlink" contentStyleType="text/css" height="800px" preserveAspectRatio="none" style="width:2807px;height:800px;background:#FFFFFF;" version="1.1" viewBox="0 0 2807 800" width="2807px" zoomAndPan="magnify"><defs/><g><!--cluster s3--><g id="cluster_s3"><path d="M6,86.32 C6,76.32 227.5,76.32 227.5,76.32 C227.5,76.32 449,76.32 449,86.32 L449,200.32 C449,210.32 227.5,210.32 227.5,210.32 C227.5,210.32 6,210.32 6,200.32 L6,86.32 " fill="none" style="stroke:#181818;stroke-width:1.0;"/><path d="M6,86.32 C6,96.32 227.5,96.32 227.5,96.32 C227.5,96.32 449,96.32 449,86.32 " fill="none" style="stroke:#181818;stroke-width:1.0;"/><text fill="#000000" font-family="sans-serif" font-size="14" font-weight="bold" lengthAdjust="spacing" textLength="18.0742" x="218.4629" y="111.3151">s3</text></g><!--cluster goyda-auth-service--><g id="cluster_goyda-auth-service"><polygon fill="none" points="99,349.32,109,339.32,674,339.32,674,431.32,664,441.32,99,441.32,99,349.32" style="stroke:#181818;stroke-width:1.0;"/><line style="stroke:#181818;stroke-width:1.0;" x1="664" x2="674" y1="349.32" y2="339.32"/><line style="stroke:#181818;stroke-width:1.0;" x1="99" x2="664" y1="349.32" y2="349.32"/><line style="stroke:#181818;stroke-width:1.0;" x1="664" x2="664" y1="349.32" y2="441.32"/><text fill="#000000" font-family="sans-serif" font-size="14" font-weight="bold" lengthAdjust="spacing" textLength="152.3799" x="306.3101" y="365.3151">goyda-auth-service</text></g><!--cluster goyda-auth-storage--><g id="cluster_goyda-auth-storage"><path d="M1792,254.82 C1792,244.82 2291,244.82 2291,244.82 C2291,244.82 2790,244.82 2790,254.82 L2790,496.82 C2790,506.82 2291,506.82 2291,506.82 C2291,506.82 1792,506.82 1792,496.82 L1792,254.82 " fill="none" style="stroke:#181818;stroke-width:1.0;"/><path d="M1792,254.82 C1792,264.82 2291,264.82 2291,264.82 C2291,264.82 2790,264.82 2790,254.82 " fill="none" style="stroke:#181818;stroke-width:1.0;"/><text fill="#000000" font-family="sans-serif" font-size="14" font-weight="bold" lengthAdjust="spacing" textLength="156.4404" x="2212.7798" y="279.8151">goyda-auth-storage</text></g><!--cluster goyda-auth-postgres--><g id="cluster_goyda-auth-postgres"><path d="M1818.5,302.82 L1984.8477,302.82 A3.75,3.75 0 0 1 1987.3477,305.32 L1994.3477,325.1169 L2763.5,325.1169 A2.5,2.5 0 0 1 2766,327.6169 L2766,480.32 A2.5,2.5 0 0 1 2763.5,482.82 L1818.5,482.82 A2.5,2.5 0 0 1 1816,480.32 L1816,305.32 A2.5,2.5 0 0 1 1818.5,302.82 " fill="none" style="stroke:#000000;stroke-width:1.5;"/><line style="stroke:#000000;stroke-width:1.5;" x1="1816" x2="1994.3477" y1="325.1169" y2="325.1169"/><text fill="#000000" font-family="sans-serif" font-size="14" font-weight="bold" lengthAdjust="spacing" textLength="165.3477" x="1820" y="317.8151">goyda-auth-postgres</text></g><!--cluster goyda-user-service--><g id="cluster_goyda-user-service"><polygon fill="none" points="147,635.82,157,625.82,466,625.82,466,717.82,456,727.82,147,727.82,147,635.82" style="stroke:#181818;stroke-width:1.0;"/><line style="stroke:#181818;stroke-width:1.0;" x1="456" x2="466" y1="635.82" y2="625.82"/><line style="stroke:#181818;stroke-width:1.0;" x1="147" x2="456" y1="635.82" y2="635.82"/><line style="stroke:#181818;stroke-width:1.0;" x1="456" x2="456" y1="635.82" y2="727.82"/><text fill="#000000" font-family="sans-serif" font-size="14" font-weight="bold" lengthAdjust="spacing" textLength="151.0059" x="226.9971" y="651.8151">goyda-user-service</text></g><!--cluster goyda-user-storage--><g id="cluster_goyda-user-storage"><path d="M490,551.32 C490,541.32 828,541.32 828,541.32 C828,541.32 1166,541.32 1166,551.32 L1166,773.32 C1166,783.32 828,783.32 828,783.32 C828,783.32 490,783.32 490,773.32 L490,551.32 " fill="none" style="stroke:#181818;stroke-width:1.0;"/><path d="M490,551.32 C490,561.32 828,561.32 828,561.32 C828,561.32 1166,561.32 1166,551.32 " fill="none" style="stroke:#181818;stroke-width:1.0;"/><text fill="#000000" font-family="sans-serif" font-size="14" font-weight="bold" lengthAdjust="spacing" textLength="155.0664" x="750.4668" y="576.3151">goyda-user-storage</text></g><!--cluster goyda-user-postgres--><g id="cluster_goyda-user-postgres"><path d="M516.5,599.32 L681.4736,599.32 A3.75,3.75 0 0 1 683.9736,601.82 L690.9736,621.6169 L1139.5,621.6169 A2.5,2.5 0 0 1 1142,624.1169 L1142,756.82 A2.5,2.5 0 0 1 1139.5,759.32 L516.5,759.32 A2.5,2.5 0 0 1 514,756.82 L514,601.82 A2.5,2.5 0 0 1 516.5,599.32 " fill="none" style="stroke:#000000;stroke-width:1.5;"/><line style="stroke:#000000;stroke-width:1.5;" x1="514" x2="690.9736" y1="621.6169" y2="621.6169"/><text fill="#000000" font-family="sans-serif" font-size="14" font-weight="bold" lengthAdjust="spacing" textLength="163.9736" x="518" y="614.3151">goyda-user-postgres</text></g><!--cluster goyda-guild-service--><g id="cluster_goyda-guild-service"><polygon fill="none" points="534,107.32,544,97.32,1328,97.32,1328,189.32,1318,199.32,534,199.32,534,107.32" style="stroke:#181818;stroke-width:1.0;"/><line style="stroke:#181818;stroke-width:1.0;" x1="1318" x2="1328" y1="107.32" y2="97.32"/><line style="stroke:#181818;stroke-width:1.0;" x1="534" x2="1318" y1="107.32" y2="107.32"/><line style="stroke:#181818;stroke-width:1.0;" x1="1318" x2="1318" y1="107.32" y2="199.32"/><text fill="#000000" font-family="sans-serif" font-size="14" font-weight="bold" lengthAdjust="spacing" textLength="155.9141" x="849.043" y="123.3151">goyda-guild-service</text></g><!--cluster goyda-guild-storage--><g id="cluster_goyda-guild-storage"><path d="M698,244.32 C698,234.32 1233,234.32 1233,234.32 C1233,234.32 1768,234.32 1768,244.32 L1768,507.32 C1768,517.32 1233,517.32 1233,517.32 C1233,517.32 698,517.32 698,507.32 L698,244.32 " fill="none" style="stroke:#181818;stroke-width:1.0;"/><path d="M698,244.32 C698,254.32 1233,254.32 1233,254.32 C1233,254.32 1768,254.32 1768,244.32 " fill="none" style="stroke:#181818;stroke-width:1.0;"/><text fill="#000000" font-family="sans-serif" font-size="14" font-weight="bold" lengthAdjust="spacing" textLength="159.9746" x="1153.0127" y="269.3151">goyda-guild-storage</text></g><!--cluster goyda-guild-postgres--><g id="cluster_goyda-guild-postgres"><path d="M724.5,292.32 L894.3818,292.32 A3.75,3.75 0 0 1 896.8818,294.82 L903.8818,314.6169 L1741.5,314.6169 A2.5,2.5 0 0 1 1744,317.1169 L1744,490.82 A2.5,2.5 0 0 1 1741.5,493.32 L724.5,493.32 A2.5,2.5 0 0 1 722,490.82 L722,294.82 A2.5,2.5 0 0 1 724.5,292.32 " fill="none" style="stroke:#000000;stroke-width:1.5;"/><line style="stroke:#000000;stroke-width:1.5;" x1="722" x2="903.8818" y1="314.6169" y2="314.6169"/><text fill="#000000" font-family="sans-serif" font-size="14" font-weight="bold" lengthAdjust="spacing" textLength="168.8818" x="726" y="307.3151">goyda-guild-postgres</text></g><rect fill="#F1F1F1" height="60.8906" style="stroke:#181818;stroke-width:0.5;" width="170.3838" x="255" y="130.32"/><text fill="#000000" font-family="sans-serif" font-size="14" lengthAdjust="spacing" textLength="54.7764" x="312.8037" y="145.3151">Storage</text><line style="stroke:#181818;stroke-width:1.0;" x1="326.0244" x2="326.0244" y1="150.6169" y2="191.2106"/><line style="stroke:#181818;stroke-width:1.0;" x1="255" x2="425.3838" y1="150.6169" y2="150.6169"/><text fill="#000000" font-family="sans-serif" font-size="14" lengthAdjust="spacing" textLength="47.373" x="260" y="165.612">backet</text><text fill="#000000" font-family="sans-serif" font-size="14" lengthAdjust="spacing" textLength="89.3594" x="331.0244" y="165.612">user_profiles</text><line style="stroke:#181818;stroke-width:1.0;" x1="255" x2="425.3838" y1="170.9138" y2="170.9138"/><text fill="#000000" font-family="sans-serif" font-size="14" lengthAdjust="spacing" textLength="61.0244" x="260" y="185.9089">filename</text><text fill="#000000" font-family="sans-serif" font-size="14" lengthAdjust="spacing" textLength="30.5225" x="331.0244" y="185.9089">uuid</text><rect fill="#F1F1F1" height="60.8906" style="stroke:#181818;stroke-width:0.5;" width="174.2734" x="30" y="130.32"/><text fill="#000000" font-family="sans-serif" font-size="14" lengthAdjust="spacing" textLength="91.1641" x="71.5547" y="145.3151">StorageGuild</text><line style="stroke:#181818;stroke-width:1.0;" x1="101.0244" x2="101.0244" y1="150.6169" y2="191.2106"/><line style="stroke:#181818;stroke-width:1.0;" x1="30" x2="204.2734" y1="150.6169" y2="150.6169"/><text fill="#000000" font-family="sans-serif" font-size="14" lengthAdjust="spacing" textLength="47.373" x="35" y="165.612">backet</text><text fill="#000000" font-family="sans-serif" font-size="14" lengthAdjust="spacing" textLength="93.249" x="106.0244" y="165.612">guild_profiles</text><line style="stroke:#181818;stroke-width:1.0;" x1="30" x2="204.2734" y1="170.9138" y2="170.9138"/><text fill="#000000" font-family="sans-serif" font-size="14" lengthAdjust="spacing" textLength="61.0244" x="35" y="185.9089">filename</text><text fill="#000000" font-family="sans-serif" font-size="14" lengthAdjust="spacing" textLength="30.5225" x="106.0244" y="185.9089">uuid</text><!--entity ??????????????--><g id="elem_&#1040;&#1091;&#1090;&#1077;&#1085;&#1090;&#1080;&#1092;&#1080;&#1082;&#1072;&#1094;&#1080;&#1103;"><rect fill="#F1F1F1" height="46.2969" rx="2.5" ry="2.5" style="stroke:#181818;stroke-width:0.5;" width="166.1914" x="221" y="379.32"/><rect fill="#F1F1F1" height="10" style="stroke:#181818;stroke-width:0.5;" width="15" x="367.1914" y="384.32"/><rect fill="#F1F1F1" height="2" style="stroke:#181818;stroke-width:0.5;" width="4" x="365.1914" y="386.32"/><rect fill="#F1F1F1" height="2" style="stroke:#181818;stroke-width:0.5;" width="4" x="365.1914" y="390.32"/><text fill="#000000" font-family="sans-serif" font-size="14" lengthAdjust="spacing" textLength="126.1914" x="236" y="412.3151">&#1040;&#1091;&#1090;&#1077;&#1085;&#1090;&#1080;&#1092;&#1080;&#1082;&#1072;&#1094;&#1080;&#1103;</text></g><!--entity access_jwt--><g id="elem_access_jwt"><ellipse cx="649" cy="402.32" fill="#F1F1F1" rx="8" ry="8" style="stroke:#181818;stroke-width:0.5;"/><text fill="#000000" font-family="sans-serif" font-size="14" lengthAdjust="spacing" textLength="75.0039" x="611.498" y="432.3151">access_jwt</text></g><!--entity refresh_jwt--><g id="elem_refresh_jwt"><ellipse cx="431" cy="402.32" fill="#F1F1F1" rx="8" ry="8" style="stroke:#181818;stroke-width:0.5;"/><text fill="#000000" font-family="sans-serif" font-size="14" lengthAdjust="spacing" textLength="77.6631" x="392.1685" y="432.3151">refresh_jwt</text></g><!--entity http--><g id="elem_http"><ellipse cx="177" cy="402.32" fill="#F1F1F1" rx="8" ry="8" style="stroke:#181818;stroke-width:0.5;"/><text fill="#000000" font-family="sans-serif" font-size="14" lengthAdjust="spacing" textLength="28.7383" x="162.6309" y="432.3151">http</text></g><!--entity oauth--><g id="elem_oauth"><ellipse cx="124" cy="402.32" fill="#F1F1F1" rx="8" ry="8" style="stroke:#181818;stroke-width:0.5;"/><text fill="#000000" font-family="sans-serif" font-size="14" lengthAdjust="spacing" textLength="40.3799" x="103.8101" y="432.3151">oauth</text></g><!--entity Jwt refresher--><g id="elem_Jwt refresher"><rect fill="#F1F1F1" height="46.2969" rx="2.5" ry="2.5" style="stroke:#181818;stroke-width:0.5;" width="129.7217" x="475" y="379.32"/><rect fill="#F1F1F1" height="10" style="stroke:#181818;stroke-width:0.5;" width="15" x="584.7217" y="384.32"/><rect fill="#F1F1F1" height="2" style="stroke:#181818;stroke-width:0.5;" width="4" x="582.7217" y="386.32"/><rect fill="#F1F1F1" height="2" style="stroke:#181818;stroke-width:0.5;" width="4" x="582.7217" y="390.32"/><text fill="#000000" font-family="sans-serif" font-size="14" lengthAdjust="spacing" textLength="89.7217" x="490" y="412.3151">Jwt refresher</text></g><rect fill="#F1F1F1" height="121.7813" style="stroke:#181818;stroke-width:0.5;" width="417.3525" x="1839.5" y="341.82"/><text fill="#000000" font-family="sans-serif" font-size="14" lengthAdjust="spacing" textLength="39.2041" x="2028.5742" y="356.8151">Users</text><line style="stroke:#181818;stroke-width:1.0;" x1="1946.9531" x2="1946.9531" y1="362.1169" y2="463.6013"/><line style="stroke:#181818;stroke-width:1.0;" x1="1839.5" x2="2256.8525" y1="362.1169" y2="362.1169"/><text fill="#000000" font-family="sans-serif" font-size="14" lengthAdjust="spacing" textLength="70.2393" x="1844.5" y="377.112">username</text><text fill="#000000" font-family="sans-serif" font-size="14" lengthAdjust="spacing" textLength="56.3076" x="1951.9531" y="377.112">covalski</text><line style="stroke:#181818;stroke-width:1.0;" x1="1839.5" x2="2256.8525" y1="382.4138" y2="382.4138"/><text fill="#000000" font-family="sans-serif" font-size="14" lengthAdjust="spacing" textLength="30.5225" x="1844.5" y="397.4089">uuid</text><text fill="#000000" font-family="sans-serif" font-size="14" lengthAdjust="spacing" textLength="299.8994" x="1951.9531" y="397.4089">42621230-9357-45f9-ad77-9ad93beb1a37</text><line style="stroke:#181818;stroke-width:1.0;" x1="1839.5" x2="2256.8525" y1="402.7106" y2="402.7106"/><text fill="#000000" font-family="sans-serif" font-size="14" lengthAdjust="spacing" textLength="38.6094" x="1844.5" y="417.7057">email</text><text fill="#000000" font-family="sans-serif" font-size="14" lengthAdjust="spacing" textLength="181.3438" x="1951.9531" y="417.7057">kovalski@goydazvon.com</text><line style="stroke:#181818;stroke-width:1.0;" x1="1839.5" x2="2256.8525" y1="423.0075" y2="423.0075"/><text fill="#000000" font-family="sans-serif" font-size="14" lengthAdjust="spacing" textLength="33.6191" x="1844.5" y="438.0026">hash</text><text fill="#000000" font-family="sans-serif" font-size="14" lengthAdjust="spacing" textLength="280.0752" x="1951.9531" y="438.0026">c402dd93321356e65d9c4a10590cad9e</text><line style="stroke:#181818;stroke-width:1.0;" x1="1839.5" x2="2256.8525" y1="443.3044" y2="443.3044"/><text fill="#000000" font-family="sans-serif" font-size="14" lengthAdjust="spacing" textLength="97.4531" x="1844.5" y="458.2995">auth_provider</text><text fill="#000000" font-family="sans-serif" font-size="14" lengthAdjust="spacing" textLength="83.959" x="1951.9531" y="458.2995">google|bare</text><rect fill="#F1F1F1" height="81.1875" style="stroke:#181818;stroke-width:0.5;" width="435.085" x="2307.5" y="361.82"/><text fill="#000000" font-family="sans-serif" font-size="14" lengthAdjust="spacing" textLength="60.71" x="2494.6875" y="376.8151">Sessions</text><line style="stroke:#181818;stroke-width:1.0;" x1="2432.6855" x2="2432.6855" y1="382.1169" y2="443.0075"/><line style="stroke:#181818;stroke-width:1.0;" x1="2307.5" x2="2742.585" y1="382.1169" y2="382.1169"/><text fill="#000000" font-family="sans-serif" font-size="14" lengthAdjust="spacing" textLength="68.0586" x="2312.5" y="397.112">user_uuid</text><text fill="#000000" font-family="sans-serif" font-size="14" lengthAdjust="spacing" textLength="299.8994" x="2437.6855" y="397.112">42621230-9357-45f9-ad77-9ad93beb1a37</text><line style="stroke:#181818;stroke-width:1.0;" x1="2307.5" x2="2742.585" y1="402.4138" y2="402.4138"/><text fill="#000000" font-family="sans-serif" font-size="14" lengthAdjust="spacing" textLength="98.5264" x="2312.5" y="417.4089">session_name</text><text fill="#000000" font-family="sans-serif" font-size="14" lengthAdjust="spacing" textLength="47.4824" x="2437.6855" y="417.4089">mobile</text><line style="stroke:#181818;stroke-width:1.0;" x1="2307.5" x2="2742.585" y1="422.7106" y2="422.7106"/><text fill="#000000" font-family="sans-serif" font-size="14" lengthAdjust="spacing" textLength="115.1855" x="2312.5" y="437.7057">refresh_jwt_uuid</text><text fill="#000000" font-family="sans-serif" font-size="14" lengthAdjust="spacing" textLength="291.9834" x="2437.6855" y="437.7057">a49bc641-f3a1-4931-ac2f-7744c1de3a5b</text><!--entity ????????--><g id="elem_&#1072;&#1074;&#1072;&#1090;&#1072;&#1088;&#1082;&#1072;"><ellipse cx="278" cy="688.82" fill="#F1F1F1" rx="8" ry="8" style="stroke:#181818;stroke-width:0.5;"/><text fill="#000000" font-family="sans-serif" font-size="14" lengthAdjust="spacing" textLength="68.0654" x="243.9673" y="718.8151">&#1072;&#1074;&#1072;&#1090;&#1072;&#1088;&#1082;&#1072;</text></g><!--entity ??????????--><g id="elem_&#1059;&#1087;&#1088;&#1072;&#1074;&#1083;&#1077;&#1085;&#1080;&#1077;"><rect fill="#F1F1F1" height="46.2969" rx="2.5" ry="2.5" style="stroke:#181818;stroke-width:0.5;" width="127.8281" x="322" y="665.82"/><rect fill="#F1F1F1" height="10" style="stroke:#181818;stroke-width:0.5;" width="15" x="429.8281" y="670.82"/><rect fill="#F1F1F1" height="2" style="stroke:#181818;stroke-width:0.5;" width="4" x="427.8281" y="672.82"/><rect fill="#F1F1F1" height="2" style="stroke:#181818;stroke-width:0.5;" width="4" x="427.8281" y="676.82"/><text fill="#000000" font-family="sans-serif" font-size="14" lengthAdjust="spacing" textLength="87.8281" x="337" y="698.8151">&#1059;&#1087;&#1088;&#1072;&#1074;&#1083;&#1077;&#1085;&#1080;&#1077;</text></g><!--entity ???????--><g id="elem_&#1085;&#1080;&#1082;&#1085;&#1077;&#1081;&#1084;"><ellipse cx="225" cy="688.82" fill="#F1F1F1" rx="8" ry="8" style="stroke:#181818;stroke-width:0.5;"/><text fill="#000000" font-family="sans-serif" font-size="14" lengthAdjust="spacing" textLength="64.1348" x="192.9326" y="718.8151">&#1085;&#1080;&#1082;&#1085;&#1077;&#1081;&#1084;</text></g><!--entity ????_???????????--><g id="elem_&#1076;&#1072;&#1090;&#1072;_&#1088;&#1077;&#1075;&#1080;&#1089;&#1090;&#1088;&#1072;&#1094;&#1080;&#1080;"><ellipse cx="172" cy="688.82" fill="#F1F1F1" rx="8" ry="8" style="stroke:#181818;stroke-width:0.5;"/><text fill="#000000" font-family="sans-serif" font-size="14" lengthAdjust="spacing" textLength="136.9922" x="103.5039" y="718.8151">&#1076;&#1072;&#1090;&#1072;_&#1088;&#1077;&#1075;&#1080;&#1089;&#1090;&#1088;&#1072;&#1094;&#1080;&#1080;</text></g><rect fill="#F1F1F1" height="101.4844" style="stroke:#181818;stroke-width:0.5;" width="580.9639" x="538" y="638.32"/><text fill="#000000" font-family="sans-serif" font-size="14" lengthAdjust="spacing" textLength="65.3379" x="795.813" y="653.3151">UserData</text><line style="stroke:#181818;stroke-width:1.0;" x1="667.6494" x2="667.6494" y1="658.6169" y2="739.8044"/><line style="stroke:#181818;stroke-width:1.0;" x1="538" x2="1118.9639" y1="658.6169" y2="658.6169"/><text fill="#000000" font-family="sans-serif" font-size="14" lengthAdjust="spacing" textLength="30.5225" x="543" y="673.612">uuid</text><text fill="#000000" font-family="sans-serif" font-size="14" lengthAdjust="spacing" textLength="299.8994" x="672.6494" y="673.612">42621230-9357-45f9-ad77-9ad93beb1a37</text><line style="stroke:#181818;stroke-width:1.0;" x1="538" x2="1118.9639" y1="678.9138" y2="678.9138"/><text fill="#000000" font-family="sans-serif" font-size="14" lengthAdjust="spacing" textLength="68.2705" x="543" y="693.9089">nickname</text><text fill="#000000" font-family="sans-serif" font-size="14" lengthAdjust="spacing" textLength="109.2725" x="672.6494" y="693.9089">Glavniy pinguin</text><line style="stroke:#181818;stroke-width:1.0;" x1="538" x2="1118.9639" y1="699.2106" y2="699.2106"/><text fill="#000000" font-family="sans-serif" font-size="14" lengthAdjust="spacing" textLength="45.2676" x="543" y="714.2057">avatar</text><text fill="#000000" font-family="sans-serif" font-size="14" lengthAdjust="spacing" textLength="441.3145" x="672.6494" y="714.2057">/images/avatar/42621230-9357-45f9-ad77-9ad93beb1a37.png</text><line style="stroke:#181818;stroke-width:1.0;" x1="538" x2="1118.9639" y1="719.5075" y2="719.5075"/><text fill="#000000" font-family="sans-serif" font-size="14" lengthAdjust="spacing" textLength="119.6494" x="543" y="734.5026">registration_date</text><text fill="#000000" font-family="sans-serif" font-size="14" lengthAdjust="spacing" textLength="89.0723" x="672.6494" y="734.5026">1751915296</text><!--entity ????????? ???????--><g id="elem_&#1053;&#1072;&#1089;&#1090;&#1088;&#1086;&#1081;&#1082;&#1072; &#1075;&#1080;&#1083;&#1100;&#1076;&#1080;&#1080;"><rect fill="#F1F1F1" height="46.2969" rx="2.5" ry="2.5" style="stroke:#181818;stroke-width:0.5;" width="184.5254" x="603.5" y="137.32"/><rect fill="#F1F1F1" height="10" style="stroke:#181818;stroke-width:0.5;" width="15" x="768.0254" y="142.32"/><rect fill="#F1F1F1" height="2" style="stroke:#181818;stroke-width:0.5;" width="4" x="766.0254" y="144.32"/><rect fill="#F1F1F1" height="2" style="stroke:#181818;stroke-width:0.5;" width="4" x="766.0254" y="148.32"/><text fill="#000000" font-family="sans-serif" font-size="14" lengthAdjust="spacing" textLength="144.5254" x="618.5" y="170.3151">&#1053;&#1072;&#1089;&#1090;&#1088;&#1086;&#1081;&#1082;&#1072; &#1075;&#1080;&#1083;&#1100;&#1076;&#1080;&#1080;</text></g><!--entity ?????? ???????--><g id="elem_&#1044;&#1072;&#1085;&#1085;&#1099;&#1077; &#1075;&#1080;&#1083;&#1100;&#1076;&#1080;&#1080;"><rect fill="#F1F1F1" height="46.2969" rx="2.5" ry="2.5" style="stroke:#181818;stroke-width:0.5;" width="163.4707" x="930.5" y="137.32"/><rect fill="#F1F1F1" height="10" style="stroke:#181818;stroke-width:0.5;" width="15" x="1073.9707" y="142.32"/><rect fill="#F1F1F1" height="2" style="stroke:#181818;stroke-width:0.5;" width="4" x="1071.9707" y="144.32"/><rect fill="#F1F1F1" height="2" style="stroke:#181818;stroke-width:0.5;" width="4" x="1071.9707" y="148.32"/><text fill="#000000" font-family="sans-serif" font-size="14" lengthAdjust="spacing" textLength="123.4707" x="945.5" y="170.3151">&#1044;&#1072;&#1085;&#1085;&#1099;&#1077; &#1075;&#1080;&#1083;&#1100;&#1076;&#1080;&#1080;</text></g><!--entity uuid--><g id="elem_uuid"><ellipse cx="833" cy="160.32" fill="#F1F1F1" rx="8" ry="8" style="stroke:#181818;stroke-width:0.5;"/><text fill="#000000" font-family="sans-serif" font-size="14" lengthAdjust="spacing" textLength="30.5225" x="817.7388" y="190.3151">uuid</text></g><!--entity ????????_???????--><g id="elem_&#1072;&#1074;&#1072;&#1090;&#1072;&#1088;&#1082;&#1072;_&#1075;&#1080;&#1083;&#1100;&#1076;&#1080;&#1080;"><ellipse cx="559" cy="160.32" fill="#F1F1F1" rx="8" ry="8" style="stroke:#181818;stroke-width:0.5;"/><text fill="#000000" font-family="sans-serif" font-size="14" lengthAdjust="spacing" textLength="136.5957" x="490.7021" y="190.3151">&#1072;&#1074;&#1072;&#1090;&#1072;&#1088;&#1082;&#1072;_&#1075;&#1080;&#1083;&#1100;&#1076;&#1080;&#1080;</text></g><!--entity ????????_???????--><g id="elem_&#1085;&#1072;&#1079;&#1074;&#1072;&#1085;&#1080;&#1077;_&#1075;&#1080;&#1083;&#1100;&#1076;&#1080;&#1080;"><ellipse cx="886" cy="160.32" fill="#F1F1F1" rx="8" ry="8" style="stroke:#181818;stroke-width:0.5;"/><text fill="#000000" font-family="sans-serif" font-size="14" lengthAdjust="spacing" textLength="137.4023" x="817.2988" y="190.3151">&#1085;&#1072;&#1079;&#1074;&#1072;&#1085;&#1080;&#1077;_&#1075;&#1080;&#1083;&#1100;&#1076;&#1080;&#1080;</text></g><!--entity ????????? ???????--><g id="elem_&#1059;&#1095;&#1072;&#1089;&#1090;&#1085;&#1080;&#1082;&#1080; &#1075;&#1080;&#1083;&#1100;&#1076;&#1080;&#1080;"><rect fill="#F1F1F1" height="46.2969" rx="2.5" ry="2.5" style="stroke:#181818;stroke-width:0.5;" width="183.0215" x="1128.5" y="137.32"/><rect fill="#F1F1F1" height="10" style="stroke:#181818;stroke-width:0.5;" width="15" x="1291.5215" y="142.32"/><rect fill="#F1F1F1" height="2" style="stroke:#181818;stroke-width:0.5;" width="4" x="1289.5215" y="144.32"/><rect fill="#F1F1F1" height="2" style="stroke:#181818;stroke-width:0.5;" width="4" x="1289.5215" y="148.32"/><text fill="#000000" font-family="sans-serif" font-size="14" lengthAdjust="spacing" textLength="143.0215" x="1143.5" y="170.3151">&#1059;&#1095;&#1072;&#1089;&#1090;&#1085;&#1080;&#1082;&#1080; &#1075;&#1080;&#1083;&#1100;&#1076;&#1080;&#1080;</text></g><rect fill="#F1F1F1" height="142.0781" style="stroke:#181818;stroke-width:0.5;" width="531.6016" x="746.5" y="331.32"/><text fill="#000000" font-family="sans-serif" font-size="14" lengthAdjust="spacing" textLength="69.8154" x="977.3931" y="346.3151">GuildData</text><line style="stroke:#181818;stroke-width:1.0;" x1="837.6289" x2="837.6289" y1="351.6169" y2="473.3981"/><line style="stroke:#181818;stroke-width:1.0;" x1="746.5" x2="1278.1016" y1="351.6169" y2="351.6169"/><text fill="#000000" font-family="sans-serif" font-size="14" lengthAdjust="spacing" textLength="30.5225" x="751.5" y="366.612">uuid</text><text fill="#000000" font-family="sans-serif" font-size="14" lengthAdjust="spacing" textLength="299.8994" x="842.6289" y="366.612">42621230-9357-45f9-ad77-9ad93beb1a37</text><line style="stroke:#181818;stroke-width:1.0;" x1="746.5" x2="1278.1016" y1="371.9138" y2="371.9138"/><text fill="#000000" font-family="sans-serif" font-size="14" lengthAdjust="spacing" textLength="50.4561" x="751.5" y="386.9089">creator</text><text fill="#000000" font-family="sans-serif" font-size="14" lengthAdjust="spacing" textLength="87.9785" x="842.6289" y="386.9089">creator_uuid</text><line style="stroke:#181818;stroke-width:1.0;" x1="746.5" x2="1278.1016" y1="392.2106" y2="392.2106"/><text fill="#000000" font-family="sans-serif" font-size="14" lengthAdjust="spacing" textLength="81.1289" x="751.5" y="407.2057">guild_name</text><text fill="#000000" font-family="sans-serif" font-size="14" lengthAdjust="spacing" textLength="170.6592" x="842.6289" y="407.2057">&#1054;&#1093;&#1086;&#1090;&#1085;&#1080;&#1082;&#1080; &#1085;&#1072; &#1082;&#1072;&#1088;&#1090;&#1086;&#1096;&#1082;&#1091;</text><line style="stroke:#181818;stroke-width:1.0;" x1="746.5" x2="1278.1016" y1="412.5075" y2="412.5075"/><text fill="#000000" font-family="sans-serif" font-size="14" lengthAdjust="spacing" textLength="45.2676" x="751.5" y="427.5026">avatar</text><text fill="#000000" font-family="sans-serif" font-size="14" lengthAdjust="spacing" textLength="430.4727" x="842.6289" y="427.5026">/images/guild/42621230-9357-45f9-ad77-9ad93beb1a37.png</text><line style="stroke:#181818;stroke-width:1.0;" x1="746.5" x2="1278.1016" y1="432.8044" y2="432.8044"/><text fill="#000000" font-family="sans-serif" font-size="14" lengthAdjust="spacing" textLength="67.6416" x="751.5" y="447.7995">public_url</text><text fill="#000000" font-family="sans-serif" font-size="14" lengthAdjust="spacing" textLength="76.665" x="842.6289" y="447.7995">potatoman</text><line style="stroke:#181818;stroke-width:1.0;" x1="746.5" x2="1278.1016" y1="453.1013" y2="453.1013"/><text fill="#000000" font-family="sans-serif" font-size="14" lengthAdjust="spacing" textLength="31.2744" x="751.5" y="468.0964">type</text><text fill="#000000" font-family="sans-serif" font-size="14" lengthAdjust="spacing" textLength="96.3389" x="842.6289" y="468.0964">private|public</text><rect fill="#F1F1F1" height="60.8906" style="stroke:#181818;stroke-width:0.5;" width="391.8477" x="1328.5" y="372.32"/><text fill="#000000" font-family="sans-serif" font-size="14" lengthAdjust="spacing" textLength="75.5918" x="1486.6279" y="387.3151">GuildUsers</text><line style="stroke:#181818;stroke-width:1.0;" x1="1410.4482" x2="1410.4482" y1="392.6169" y2="433.2106"/><line style="stroke:#181818;stroke-width:1.0;" x1="1328.5" x2="1720.3477" y1="392.6169" y2="392.6169"/><text fill="#000000" font-family="sans-serif" font-size="14" lengthAdjust="spacing" textLength="71.9482" x="1333.5" y="407.612">guild_uuid</text><text fill="#000000" font-family="sans-serif" font-size="14" lengthAdjust="spacing" textLength="299.8994" x="1415.4482" y="407.612">42621230-9357-45f9-ad77-9ad93beb1a37</text><line style="stroke:#181818;stroke-width:1.0;" x1="1328.5" x2="1720.3477" y1="412.9138" y2="412.9138"/><text fill="#000000" font-family="sans-serif" font-size="14" lengthAdjust="spacing" textLength="68.0586" x="1333.5" y="427.9089">user_uuid</text><text fill="#000000" font-family="sans-serif" font-size="14" lengthAdjust="spacing" textLength="299.8994" x="1415.4482" y="427.9089">42621230-9357-45f9-ad77-9ad93beb1a37</text><!--link ?????????????? to access_jwt--><g id="link_&#1040;&#1091;&#1090;&#1077;&#1085;&#1090;&#1080;&#1092;&#1080;&#1082;&#1072;&#1094;&#1080;&#1103;_access_jwt"><path d="M310.61,379.09 C322.72,340.96 352.19,265.41 405,226.32 C411.41,221.57 414.57,223.21 422.5,222.32 C462.91,217.76 565.09,217.76 605.5,222.32 C613.43,223.21 617.58,220.46 623,226.32 C667.67,274.62 657.0725,358.4848 651.8925,387.2748 " fill="none" id="&#1040;&#1091;&#1090;&#1077;&#1085;&#1090;&#1080;&#1092;&#1080;&#1082;&#1072;&#1094;&#1080;&#1103;-to-access_jwt" style="stroke:#181818;stroke-width:1.0;"/><polygon fill="#181818" points="650.83,393.18,656.3605,385.0306,651.7154,388.259,648.4869,383.6139,650.83,393.18" style="stroke:#181818;stroke-width:1.0;"/></g><!--link ?????????????? to refresh_jwt--><g id="link_&#1040;&#1091;&#1090;&#1077;&#1085;&#1090;&#1080;&#1092;&#1080;&#1082;&#1072;&#1094;&#1080;&#1103;_refresh_jwt"><path d="M387.34,402.32 C398.83,402.32 404.31,402.32 415.79,402.32 " fill="none" id="&#1040;&#1091;&#1090;&#1077;&#1085;&#1090;&#1080;&#1092;&#1080;&#1082;&#1072;&#1094;&#1080;&#1103;-to-refresh_jwt" style="stroke:#181818;stroke-width:1.0;"/><polygon fill="#181818" points="421.79,402.32,412.79,398.32,416.79,402.32,412.79,406.32,421.79,402.32" style="stroke:#181818;stroke-width:1.0;"/></g><!--link http to ??????????????--><g id="link_http_&#1040;&#1091;&#1090;&#1077;&#1085;&#1090;&#1080;&#1092;&#1080;&#1082;&#1072;&#1094;&#1080;&#1103;"><path d="M186.43,402.32 C197.91,402.32 209.39,402.32 220.87,402.32 " fill="none" id="http-&#1040;&#1091;&#1090;&#1077;&#1085;&#1090;&#1080;&#1092;&#1080;&#1082;&#1072;&#1094;&#1080;&#1103;" style="stroke:#181818;stroke-width:1.0;"/></g><!--link oauth to ??????????????--><g id="link_oauth_&#1040;&#1091;&#1090;&#1077;&#1085;&#1090;&#1080;&#1092;&#1080;&#1082;&#1072;&#1094;&#1080;&#1103;"><path d="M122.23,393.17 C117.24,364.36 106.16,274.54 151,226.32 C156.43,220.48 160.57,223.21 168.5,222.32 C184.28,220.54 191.26,216.85 204,226.32 C256.59,265.43 283.8439,335.242 295.7339,373.372 " fill="none" id="oauth-to-&#1040;&#1091;&#1090;&#1077;&#1085;&#1090;&#1080;&#1092;&#1080;&#1082;&#1072;&#1094;&#1080;&#1103;" style="stroke:#181818;stroke-width:1.0;"/><polygon fill="#181818" points="297.52,379.1,298.6594,369.3173,296.0315,374.3267,291.0221,371.6988,297.52,379.1" style="stroke:#181818;stroke-width:1.0;"/></g><!--link refresh_jwt to Jwt refresher--><g id="link_refresh_jwt_Jwt refresher"><path d="M440.37,402.32 C451.78,402.32 457.2,402.32 468.62,402.32 " fill="none" id="refresh_jwt-to-Jwt refresher" style="stroke:#181818;stroke-width:1.0;"/><polygon fill="#181818" points="474.62,402.32,465.62,398.32,469.62,402.32,465.62,406.32,474.62,402.32" style="stroke:#181818;stroke-width:1.0;"/></g><!--link Jwt refresher to access_jwt--><g id="link_Jwt refresher_access_jwt"><path d="M605.14,402.32 C616.68,402.32 622.21,402.32 633.75,402.32 " fill="none" id="Jwt refresher-to-access_jwt" style="stroke:#181818;stroke-width:1.0;"/><polygon fill="#181818" points="639.75,402.32,630.75,398.32,634.75,402.32,630.75,406.32,639.75,402.32" style="stroke:#181818;stroke-width:1.0;"/></g><!--reverse link Users to Sessions--><g id="link_Users_Sessions"><path d="M2270.61,402.32 C2282.22,402.32 2287.83,402.32 2299.44,402.32 " fill="none" id="Users-backto-Sessions" style="stroke:#181818;stroke-width:1.0;"/><polygon fill="#181818" points="2264.61,402.32,2273.61,406.32,2269.61,402.32,2273.61,398.32,2264.61,402.32" style="stroke:#181818;stroke-width:1.0;"/></g><!--link ?????????????? to Users--><g id="link_&#1040;&#1091;&#1090;&#1077;&#1085;&#1090;&#1080;&#1092;&#1080;&#1082;&#1072;&#1094;&#1080;&#1103;_Users"><path d="M308.9913,373.2735 C318.1613,326.7935 345.06,231.73 416.67,223.65 C434.82,221.6 1714.18,221.6 1732.33,223.65 C1823.85,233.98 1909.091,287.1401 1969.411,333.9801 " fill="none" id="&#1040;&#1091;&#1090;&#1077;&#1085;&#1090;&#1080;&#1092;&#1080;&#1082;&#1072;&#1094;&#1080;&#1103;-Users" style="stroke:#181818;stroke-width:1.0;"/><polygon fill="#181818" points="307.83,379.16,313.4964,371.1044,308.7978,374.2546,305.6477,369.556,307.83,379.16" style="stroke:#181818;stroke-width:1.0;"/><polygon fill="#181818" points="1974.15,337.66,1969.4948,328.9808,1970.2008,334.5934,1964.5882,335.2994,1974.15,337.66" style="stroke:#181818;stroke-width:1.0;"/></g><!--link Jwt refresher to Sessions--><g id="link_Jwt refresher_Sessions"><path d="M542.5216,373.1466 C547.6916,326.5466 566.12,231.39 634.67,223.65 C657.24,221.11 2247.76,221.11 2270.33,223.65 C2360.76,233.86 2438.4302,303.6029 2483.7302,353.1229 " fill="none" id="Jwt refresher-Sessions" style="stroke:#181818;stroke-width:1.0;"/><polygon fill="#181818" points="541.86,379.11,546.828,370.606,542.4113,374.1405,538.8768,369.7238,541.86,379.11" style="stroke:#181818;stroke-width:1.0;"/><polygon fill="#181818" points="2487.78,357.55,2484.6567,348.2095,2484.4052,353.8608,2478.7539,353.6093,2487.78,357.55" style="stroke:#181818;stroke-width:1.0;"/></g><!--reverse link ???????? to ??????????--><g id="link_&#1072;&#1074;&#1072;&#1090;&#1072;&#1088;&#1082;&#1072;_&#1059;&#1087;&#1088;&#1072;&#1074;&#1083;&#1077;&#1085;&#1080;&#1077;"><path d="M293.28,688.82 C304.85,688.82 310.42,688.82 321.99,688.82 " fill="none" id="&#1072;&#1074;&#1072;&#1090;&#1072;&#1088;&#1082;&#1072;-backto-&#1059;&#1087;&#1088;&#1072;&#1074;&#1083;&#1077;&#1085;&#1080;&#1077;" style="stroke:#181818;stroke-width:1.0;"/><polygon fill="#181818" points="287.28,688.82,296.28,692.82,292.28,688.82,296.28,684.82,287.28,688.82" style="stroke:#181818;stroke-width:1.0;"/></g><!--reverse link ??????? to ??????????--><g id="link_&#1085;&#1080;&#1082;&#1085;&#1077;&#1081;&#1084;_&#1059;&#1087;&#1088;&#1072;&#1074;&#1083;&#1077;&#1085;&#1080;&#1077;"><path d="M222.6077,673.6723 C218.7377,647.0223 212.4,575.07 252,533.32 C257.49,527.53 261.57,530.21 269.5,529.32 C285.28,527.54 292.43,523.61 305,533.32 C348.73,567.09 371.16,631.14 380.52,665.56 " fill="none" id="&#1085;&#1080;&#1082;&#1085;&#1077;&#1081;&#1084;-backto-&#1059;&#1087;&#1088;&#1072;&#1074;&#1083;&#1077;&#1085;&#1080;&#1077;" style="stroke:#181818;stroke-width:1.0;"/><polygon fill="#181818" points="223.47,679.61,226.1351,670.1286,222.7515,674.6619,218.2181,671.2783,223.47,679.61" style="stroke:#181818;stroke-width:1.0;"/></g><!--reverse link ????_??????????? to ??????????--><g id="link_&#1076;&#1072;&#1090;&#1072;_&#1088;&#1077;&#1075;&#1080;&#1089;&#1090;&#1088;&#1072;&#1094;&#1080;&#1080;_&#1059;&#1087;&#1088;&#1072;&#1074;&#1083;&#1077;&#1085;&#1080;&#1077;"><path d="M169.6077,673.6723 C165.7377,647.0223 159.4,575.07 199,533.32 C204.49,527.53 208.57,530.21 216.5,529.32 C236.06,527.11 289.42,521.29 305,533.32 C348.73,567.09 371.16,631.14 380.52,665.56 " fill="none" id="&#1076;&#1072;&#1090;&#1072;_&#1088;&#1077;&#1075;&#1080;&#1089;&#1090;&#1088;&#1072;&#1094;&#1080;&#1080;-backto-&#1059;&#1087;&#1088;&#1072;&#1074;&#1083;&#1077;&#1085;&#1080;&#1077;" style="stroke:#181818;stroke-width:1.0;"/><polygon fill="#181818" points="170.47,679.61,173.1351,670.1286,169.7515,674.6619,165.2181,671.2783,170.47,679.61" style="stroke:#181818;stroke-width:1.0;"/></g><!--link access_jwt to ??????????--><g id="link_access_jwt_&#1059;&#1087;&#1088;&#1072;&#1074;&#1083;&#1077;&#1085;&#1080;&#1077;"><path d="M650.18,411.46 C652.9,433.68 656.95,495.72 623,525.32 C604.69,541.28 535.59,522.19 514,533.32 C456.73,562.85 418.1862,625.0814 399.6562,660.2614 " fill="none" id="access_jwt-to-&#1059;&#1087;&#1088;&#1072;&#1074;&#1083;&#1077;&#1085;&#1080;&#1077;" style="stroke:#181818;stroke-width:1.0;"/><polygon fill="#181818" points="396.86,665.57,404.5933,659.4712,399.1901,661.1461,397.5152,655.743,396.86,665.57" style="stroke:#181818;stroke-width:1.0;"/></g><!--link Storage to ??????????--><g id="link_Storage_&#1059;&#1087;&#1088;&#1072;&#1074;&#1083;&#1077;&#1085;&#1080;&#1077;"><path d="M281.7211,197.2732 C264.2111,206.6532 249.49,212.94 230,218.32 C215.94,222.2 108.99,215.7 99,226.32 C7.94,323.11 6.87,429.55 99,525.32 C114.88,541.83 285.63,521.09 305,533.32 C352.37,563.24 372.2262,624.7547 380.3462,659.8147 " fill="none" id="Storage-&#1059;&#1087;&#1088;&#1072;&#1074;&#1083;&#1077;&#1085;&#1080;&#1077;" style="stroke:#181818;stroke-width:1.0;"/><polygon fill="#181818" points="287.01,194.44,277.1878,195.1639,282.6026,196.801,280.9654,202.2158,287.01,194.44" style="stroke:#181818;stroke-width:1.0;"/><polygon fill="#181818" points="381.7,665.66,383.5662,655.9896,380.5718,660.7889,375.7725,657.7946,381.7,665.66" style="stroke:#181818;stroke-width:1.0;"/></g><!--link ?????????? to UserData--><g id="link_&#1059;&#1087;&#1088;&#1072;&#1074;&#1083;&#1077;&#1085;&#1080;&#1077;_UserData"><path d="M456.2736,698.0601 C482.8336,701.0001 497.4389,702.2028 523.9889,703.6528 " fill="none" id="&#1059;&#1087;&#1088;&#1072;&#1074;&#1083;&#1077;&#1085;&#1080;&#1077;-UserData" style="stroke:#181818;stroke-width:1.0;"/><polygon fill="#181818" points="450.31,697.4,458.8153,702.3659,455.2796,697.9501,459.6954,694.4145,450.31,697.4" style="stroke:#181818;stroke-width:1.0;"/><polygon fill="#181818" points="529.98,703.98,521.2115,699.4952,524.9874,703.7073,520.7753,707.4833,529.98,703.98" style="stroke:#181818;stroke-width:1.0;"/></g><!--reverse link ????????? ??????? to access_jwt--><g id="link_&#1053;&#1072;&#1089;&#1090;&#1088;&#1086;&#1081;&#1082;&#1072; &#1075;&#1080;&#1083;&#1100;&#1076;&#1080;&#1080;_access_jwt"><path d="M690.5074,189.3582 C680.4674,240.6482 657.12,359.85 650.61,393.09 " fill="none" id="&#1053;&#1072;&#1089;&#1090;&#1088;&#1086;&#1081;&#1082;&#1072; &#1075;&#1080;&#1083;&#1100;&#1076;&#1080;&#1080;-backto-access_jwt" style="stroke:#181818;stroke-width:1.0;"/><polygon fill="#181818" points="691.66,183.47,686.0056,191.534,690.6995,188.3769,693.8566,193.0708,691.66,183.47" style="stroke:#181818;stroke-width:1.0;"/></g><!--link ????????? ??????? to ?????? ???????--><g id="link_&#1053;&#1072;&#1089;&#1090;&#1088;&#1086;&#1081;&#1082;&#1072; &#1075;&#1080;&#1083;&#1100;&#1076;&#1080;&#1080;_&#1044;&#1072;&#1085;&#1085;&#1099;&#1077; &#1075;&#1080;&#1083;&#1100;&#1076;&#1080;&#1080;"><path d="M715.148,132.2968 C736.578,102.8168 774.64,58.22 824.5,38.32 C853.81,26.62 866.49,25.91 895.5,38.32 C942.49,58.42 976.3148,102.747 995.1448,132.157 " fill="none" id="&#1053;&#1072;&#1089;&#1090;&#1088;&#1086;&#1081;&#1082;&#1072; &#1075;&#1080;&#1083;&#1100;&#1076;&#1080;&#1080;-&#1044;&#1072;&#1085;&#1085;&#1099;&#1077; &#1075;&#1080;&#1083;&#1100;&#1076;&#1080;&#1080;" style="stroke:#181818;stroke-width:1.0;"/><polygon fill="#181818" points="711.62,137.15,720.1474,132.2222,714.56,133.1057,713.6765,127.5182,711.62,137.15" style="stroke:#181818;stroke-width:1.0;"/><polygon fill="#181818" points="998.38,137.21,996.8958,127.4736,995.684,132.9991,990.1584,131.7873,998.38,137.21" style="stroke:#181818;stroke-width:1.0;"/></g><!--reverse link uuid to ?????? ???????--><g id="link_uuid_&#1044;&#1072;&#1085;&#1085;&#1099;&#1077; &#1075;&#1080;&#1083;&#1100;&#1076;&#1080;&#1080;"><path d="M832.8423,145.18 C832.9323,120.98 837.03,61.56 877.5,38.32 C930.67,7.78 980.69,94.07 1001.65,137.29 " fill="none" id="uuid-backto-&#1044;&#1072;&#1085;&#1085;&#1099;&#1077; &#1075;&#1080;&#1083;&#1100;&#1076;&#1080;&#1080;" style="stroke:#181818;stroke-width:1.0;"/><polygon fill="#181818" points="832.82,151.18,836.8534,142.1949,832.8386,146.18,828.8535,142.1652,832.82,151.18" style="stroke:#181818;stroke-width:1.0;"/></g><!--reverse link ????????_??????? to ?????? ???????--><g id="link_&#1072;&#1074;&#1072;&#1090;&#1072;&#1088;&#1082;&#1072;_&#1075;&#1080;&#1083;&#1100;&#1076;&#1080;&#1080;_&#1044;&#1072;&#1085;&#1085;&#1099;&#1077; &#1075;&#1080;&#1083;&#1100;&#1076;&#1080;&#1080;"><path d="M558.8423,145.18 C558.9323,120.98 563.03,61.56 603.5,38.32 C659.77,6 835.84,12.8 895.5,38.32 C942.49,58.42 979.55,107.8 998.38,137.21 " fill="none" id="&#1072;&#1074;&#1072;&#1090;&#1072;&#1088;&#1082;&#1072;_&#1075;&#1080;&#1083;&#1100;&#1076;&#1080;&#1080;-backto-&#1044;&#1072;&#1085;&#1085;&#1099;&#1077; &#1075;&#1080;&#1083;&#1100;&#1076;&#1080;&#1080;" style="stroke:#181818;stroke-width:1.0;"/><polygon fill="#181818" points="558.82,151.18,562.8534,142.1949,558.8386,146.18,554.8535,142.1652,558.82,151.18" style="stroke:#181818;stroke-width:1.0;"/></g><!--link ????????_??????? to StorageGuild--><g id="link_&#1072;&#1074;&#1072;&#1090;&#1072;&#1088;&#1082;&#1072;_&#1075;&#1080;&#1083;&#1100;&#1076;&#1080;&#1080;_StorageGuild"><path d="M549.9421,146.2076 C534.0921,122.1176 490.35,61.94 431.5,38.32 C355.61,7.86 323.57,8.3 247.5,38.32 C202.93,55.91 168.3378,91.9907 144.9778,121.5807 " fill="none" id="&#1072;&#1074;&#1072;&#1090;&#1072;&#1088;&#1082;&#1072;_&#1075;&#1080;&#1083;&#1100;&#1076;&#1080;&#1080;-StorageGuild" style="stroke:#181818;stroke-width:1.0;"/><polygon fill="#181818" points="553.24,151.22,551.6347,141.5028,550.4918,147.043,544.9516,145.9,553.24,151.22" style="stroke:#181818;stroke-width:1.0;"/><polygon fill="#181818" points="141.26,126.29,149.9763,121.7045,144.3582,122.3656,143.6972,116.7475,141.26,126.29" style="stroke:#181818;stroke-width:1.0;"/></g><!--reverse link ????????_??????? to ?????? ???????--><g id="link_&#1085;&#1072;&#1079;&#1074;&#1072;&#1085;&#1080;&#1077;_&#1075;&#1080;&#1083;&#1100;&#1076;&#1080;&#1080;_&#1044;&#1072;&#1085;&#1085;&#1099;&#1077; &#1075;&#1080;&#1083;&#1100;&#1076;&#1080;&#1080;"><path d="M901.35,160.32 C913.05,160.32 918.74,160.32 930.44,160.32 " fill="none" id="&#1085;&#1072;&#1079;&#1074;&#1072;&#1085;&#1080;&#1077;_&#1075;&#1080;&#1083;&#1100;&#1076;&#1080;&#1080;-backto-&#1044;&#1072;&#1085;&#1085;&#1099;&#1077; &#1075;&#1080;&#1083;&#1100;&#1076;&#1080;&#1080;" style="stroke:#181818;stroke-width:1.0;"/><polygon fill="#181818" points="895.35,160.32,904.35,164.32,900.35,160.32,904.35,156.32,895.35,160.32" style="stroke:#181818;stroke-width:1.0;"/></g><!--link ????????? ??????? to Users--><g id="link_&#1059;&#1095;&#1072;&#1089;&#1090;&#1085;&#1080;&#1082;&#1080; &#1075;&#1080;&#1083;&#1100;&#1076;&#1080;&#1080;_Users"><path d="M1311.89,161.77 C1418.46,164.77 1598.17,177.53 1744,226.32 C1821.39,252.21 1896.048,295.6364 1954.408,334.2964 " fill="none" id="&#1059;&#1095;&#1072;&#1089;&#1090;&#1085;&#1080;&#1082;&#1080; &#1075;&#1080;&#1083;&#1100;&#1076;&#1080;&#1080;-to-Users" style="stroke:#181818;stroke-width:1.0;"/><polygon fill="#181818" points="1959.41,337.61,1954.116,329.305,1955.2416,334.8487,1949.6979,335.9744,1959.41,337.61" style="stroke:#181818;stroke-width:1.0;"/></g><!--link ?????? ??????? to GuildData--><g id="link_&#1044;&#1072;&#1085;&#1085;&#1099;&#1077; &#1075;&#1080;&#1083;&#1100;&#1076;&#1080;&#1080;_GuildData"><path d="M1012,189.47 C1012,221.84 1012,271.62 1012,321.15 " fill="none" id="&#1044;&#1072;&#1085;&#1085;&#1099;&#1077; &#1075;&#1080;&#1083;&#1100;&#1076;&#1080;&#1080;-GuildData" style="stroke:#181818;stroke-width:1.0;"/><polygon fill="#181818" points="1012,183.47,1008,192.47,1012,188.47,1016,192.47,1012,183.47" style="stroke:#181818;stroke-width:1.0;"/><polygon fill="#181818" points="1012,327.15,1016,318.15,1012,322.15,1008,318.15,1012,327.15" style="stroke:#181818;stroke-width:1.0;"/></g><!--link ????????? ??????? to GuildUsers--><g id="link_&#1059;&#1095;&#1072;&#1089;&#1090;&#1085;&#1080;&#1082;&#1080; &#1075;&#1080;&#1083;&#1100;&#1076;&#1080;&#1080;_GuildUsers"><path d="M1253.1858,187.2369 C1269.2158,199.7769 1284.88,212.05 1303,226.32 C1365.48,275.52 1432.991,329.0391 1477.401,364.2991 " fill="none" id="&#1059;&#1095;&#1072;&#1089;&#1090;&#1085;&#1080;&#1082;&#1080; &#1075;&#1080;&#1083;&#1100;&#1076;&#1080;&#1080;-GuildUsers" style="stroke:#181818;stroke-width:1.0;"/><polygon fill="#181818" points="1248.46,183.54,1253.0841,192.2359,1252.3981,186.6207,1258.0133,185.9348,1248.46,183.54" style="stroke:#181818;stroke-width:1.0;"/><polygon fill="#181818" points="1482.1,368.03,1477.5387,359.301,1478.1842,364.921,1472.5642,365.5664,1482.1,368.03" style="stroke:#181818;stroke-width:1.0;"/></g><!--link GuildUsers to Users--><g id="link_GuildUsers_Users"><path d="M1727.66,402.32 C1762.18,402.32 1790.69,402.32 1825.21,402.32 " fill="none" id="GuildUsers-to-Users" style="stroke:#181818;stroke-width:1.0;"/><polygon fill="#181818" points="1831.21,402.32,1822.21,398.32,1826.21,402.32,1822.21,406.32,1831.21,402.32" style="stroke:#181818;stroke-width:1.0;"/></g><!--link GuildData to Users--><g id="link_GuildData_Users"><path d="M1096.25,327.23 C1154.57,282.17 1236.55,231.79 1320.5,222.32 C1365.33,217.26 1681.67,217.26 1726.5,222.32 C1734.43,223.21 1736.58,223.4 1744,226.32 C1817.92,255.4 1890.2661,297.2162 1948.4661,334.4562 " fill="none" id="GuildData-to-Users" style="stroke:#181818;stroke-width:1.0;"/><polygon fill="#181818" points="1953.52,337.69,1948.095,329.47,1949.3084,334.9951,1943.7832,336.2086,1953.52,337.69" style="stroke:#181818;stroke-width:1.0;"/></g><!--SRC=[dLRBRjf05Dtp5IElwmHZ6-Ggghge5AdRgAi8eR4zW8FnMBQXIfj8QTANr4hjejjsqnz0RL5fKj9V6FzHxymOR0m4mWAmxvnxvpxEcS752RPnJ90IwmfwMK7e9AO1EafeX3j4611IREpqIA8yHCeW9b4hZ6ZRyqciF93B_2N0VI800yzLm7nU2dKuy7ntELw7cxSCU5wfL0BgGguTUkfY5G-IhWhv33s7oDoFsUVqAhraOpQ5xqdwcatODHkbR-7vKnEfZn1s71B7hPFdoLRmYBGZ4dSpV3T9GgHkS0CSvPbnzut8Gdo1Vmg_cOr4752ob4g0ZhZp0HQR8dikczAclakYXVMGnaa7GYhPGCIWda4huyo0vAJb31I73h4VzxniF2WR2Wp7gDLhMaslgfPkDbJ3R5igTXiDrSAkfTl4rh3UoBr87ti-T-jb0H-Bd5uCQR3dq7uExEAuot6EKQsv44clQRfP9tNJjHm3QrNJgZgm0yazU5cSHaCFQXN4ehJZapCRHqGHeFEyqYFedqU3Kh6jtOgAPR3MZAzzQWDxy_N2YESxOCEodRgXgMqTQwfXwPgAdLfRRJGCmz5SecFJBcPzB6RJH0T0lbdopPacDh3uWFDA-bVAR19hUS15UV6UBCgBZTWF27m9dmk-XSY7VMV_u9KltV0SOFTn4t7qL2Go1UCVzdSzbaD_oR0jM1opdv3ug_II0taHR7AdRou7f0h9hSJnFcKdKLRsQjoIdcGNrkj9hA_LqnE8Lc2P6Fyz-HLuJc_6hKCV3mFl58LU00TdKA3_43OIlD_t-f1fl2yj-zlijHS6dI9VErwSH3ZXf8PkY8srXgbPcbcpwZajC_Aj7F-STBm1PMA9CxzyS7-5OSkXtm9TEBau3zXD-X780HpWCTNoyRsD4n_r5yXl2lBumCPB20Z4vo8vjW5O5a1h4RCnnbOXk2GBTsPJIcd4VdD7sU0TzeL1fUzakp9XJfOgB9mKAswMR6phfI01AxKWAbabXlkUjav4C6GWBWVvA0_LEK3-ePW9XdrBtx3ROibJJX9-F5w0zJPzpwxJgxjq9EBj8ADmOFkUqnf4ui8BQGAvzd51iibfA58C8mys9MVIOUck4fqhNSsonjqQUF-RRa7mTqj4a7S-wsPb6zBbFhDBgl1If6GXSC7y7m00]--></g></svg>